<svg xmlns="http://www.w3.org/2000/svg" xmlns:xlink="http://www.w3.org/1999/xlink" style="display: none;">
	 <symbol id="github" viewBox="0 0 438.549 438.549">
		<path d="M409.132,114.573c-19.608-33.596-46.205-60.194-79.798-79.8C295.736,15.166,259.057,5.365,219.271,5.365
			c-39.781,0-76.472,9.804-110.063,29.408c-33.596,19.605-60.192,46.204-79.8,79.8C9.803,148.168,0,184.854,0,224.63
			c0,47.78,13.94,90.745,41.827,128.906c27.884,38.164,63.906,64.572,108.063,79.227c5.14,0.954,8.945,0.283,11.419-1.996
			c2.475-2.282,3.711-5.14,3.711-8.562c0-0.571-0.049-5.708-0.144-15.417c-0.098-9.709-0.144-18.179-0.144-25.406l-6.567,1.136
			c-4.187,0.767-9.469,1.092-15.846,1c-6.374-0.089-12.991-0.757-19.842-1.999c-6.854-1.231-13.229-4.086-19.13-8.559
			c-5.898-4.473-10.085-10.328-12.56-17.556l-2.855-6.57c-1.903-4.374-4.899-9.233-8.992-14.559
			c-4.093-5.331-8.232-8.945-12.419-10.848l-1.999-1.431c-1.332-0.951-2.568-2.098-3.711-3.429c-1.142-1.331-1.997-2.663-2.568-3.997
			c-0.572-1.335-0.098-2.43,1.427-3.289c1.525-0.859,4.281-1.276,8.28-1.276l5.708,0.853c3.807,0.763,8.516,3.042,14.133,6.851
			c5.614,3.806,10.229,8.754,13.846,14.842c4.38,7.806,9.657,13.754,15.846,17.847c6.184,4.093,12.419,6.136,18.699,6.136
			c6.28,0,11.704-0.476,16.274-1.423c4.565-0.952,8.848-2.383,12.847-4.285c1.713-12.758,6.377-22.559,13.988-29.41
			c-10.848-1.14-20.601-2.857-29.264-5.14c-8.658-2.286-17.605-5.996-26.835-11.14c-9.235-5.137-16.896-11.516-22.985-19.126
			c-6.09-7.614-11.088-17.61-14.987-29.979c-3.901-12.374-5.852-26.648-5.852-42.826c0-23.035,7.52-42.637,22.557-58.817
			c-7.044-17.318-6.379-36.732,1.997-58.24c5.52-1.715,13.706-0.428,24.554,3.853c10.85,4.283,18.794,7.952,23.84,10.994
			c5.046,3.041,9.089,5.618,12.135,7.708c17.705-4.947,35.976-7.421,54.818-7.421s37.117,2.474,54.823,7.421l10.849-6.849
			c7.419-4.57,16.18-8.758,26.262-12.565c10.088-3.805,17.802-4.853,23.134-3.138c8.562,21.509,9.325,40.922,2.279,58.24
			c15.036,16.18,22.559,35.787,22.559,58.817c0,16.178-1.958,30.497-5.853,42.966c-3.9,12.471-8.941,22.457-15.125,29.979
			c-6.191,7.521-13.901,13.85-23.131,18.986c-9.232,5.14-18.182,8.85-26.84,11.136c-8.662,2.286-18.415,4.004-29.263,5.146
			c9.894,8.562,14.842,22.077,14.842,40.539v60.237c0,3.422,1.19,6.279,3.572,8.562c2.379,2.279,6.136,2.95,11.276,1.995
			c44.163-14.653,80.185-41.062,108.068-79.226c27.88-38.161,41.825-81.126,41.825-128.906
			C438.536,184.851,428.728,148.168,409.132,114.573z" />
	</symbol>
	<symbol id="linkedin" viewBox="0 0 430.117 430.118">
		<path d="M398.355,0H31.782C14.229,0,0.002,13.793,0.002,30.817v368.471
			c0,17.025,14.232,30.83,31.78,30.83h366.573c17.549,0,31.76-13.814,31.76-30.83V30.817C430.115,13.798,415.904,0,398.355,0z
			 M130.4,360.038H65.413V165.845H130.4V360.038z M97.913,139.315h-0.437c-21.793,0-35.92-14.904-35.92-33.563
			c0-19.035,14.542-33.535,36.767-33.535c22.227,0,35.899,14.496,36.331,33.535C134.654,124.415,120.555,139.315,97.913,139.315z
			 M364.659,360.038h-64.966V256.138c0-26.107-9.413-43.921-32.907-43.921c-17.973,0-28.642,12.018-33.327,23.621
			c-1.736,4.144-2.166,9.94-2.166,15.728v108.468h-64.954c0,0,0.85-175.979,0-194.192h64.964v27.531
			c8.624-13.229,24.035-32.1,58.534-32.1c42.76,0,74.822,27.739,74.822,87.414V360.038z M230.883,193.99
			c0.111-0.182,0.266-0.401,0.42-0.614v0.614H230.883z" />
	</symbol>
	<symbol id="twitter" viewBox="0 0 510 510">
		<path d="M459,0H51C22.95,0,0,22.95,0,51v408c0,28.05,22.95,51,51,51h408c28.05,0,51-22.95,51-51V51C510,22.95,487.05,0,459,0z
			 M400.35,186.15c-2.55,117.3-76.5,198.9-188.7,204C165.75,392.7,132.6,377.4,102,359.55c33.15,5.101,76.5-7.649,99.45-28.05
			c-33.15-2.55-53.55-20.4-63.75-48.45c10.2,2.55,20.4,0,28.05,0c-30.6-10.2-51-28.05-53.55-68.85c7.65,5.1,17.85,7.65,28.05,7.65
			c-22.95-12.75-38.25-61.2-20.4-91.8c33.15,35.7,73.95,66.3,140.25,71.4c-17.85-71.4,79.051-109.65,117.301-61.2
			c17.85-2.55,30.6-10.2,43.35-15.3c-5.1,17.85-15.3,28.05-28.05,38.25c12.75-2.55,25.5-5.1,35.7-10.2
			C425.85,165.75,413.1,175.95,400.35,186.15z" />
	</symbol>
	<symbol id="credits" viewBox="0 0 512 512">
		<path d="M206.848,226.944c1.408-8.32,3.968-15.744,7.68-22.272c3.712-6.528,8.832-11.776,15.104-15.744
				c6.016-3.712,13.568-5.76,22.912-5.888c6.144,0.128,11.776,1.152,16.64,3.328c5.248,2.304,9.6,5.376,13.312,9.216
				c3.712,3.84,6.528,8.448,8.576,13.568c2.048,5.12,3.2,10.624,3.456,16.384h45.824c-0.384-12.032-2.816-23.04-7.04-33.024
				s-10.368-18.56-18.048-25.856c-7.68-7.296-16.896-12.8-27.648-16.768c-10.752-3.968-22.656-6.016-35.712-6.016
				c-16.64,0-31.104,2.816-43.392,8.576c-12.288,5.76-22.528,13.568-30.72,23.552c-8.192,9.984-14.336,21.504-18.304,34.688
				c-3.968,13.184-5.888,27.136-5.888,41.856v7.04c0,14.848,2.048,28.8,6.016,41.984c3.968,13.184,10.112,24.704,18.304,34.56
				c8.192,9.856,18.432,17.664,30.848,23.424s26.88,8.576,43.52,8.576c12.032,0,23.296-1.92,33.792-5.888
				c10.496-3.968,19.712-9.344,27.648-16.256c7.936-6.912,14.336-14.848,18.944-24.064c4.608-9.216,7.296-18.944,7.68-29.44h-45.824
				c-0.256,5.376-1.536,10.24-3.84,14.848c-2.304,4.608-5.376,8.448-9.216,11.648c-3.84,3.2-8.32,5.76-13.44,7.552
				c-4.864,1.664-9.984,2.56-15.488,2.56c-9.216-0.256-16.768-2.176-22.912-6.016c-6.4-4.096-11.52-9.344-15.232-15.872
				c-3.712-6.528-6.272-13.952-7.68-22.4s-1.92-16.64-1.92-25.216v-7.04C204.8,243.84,205.44,235.264,206.848,226.944z"/>
			<path d="M256,0C114.56,0,0,114.56,0,256s114.56,256,256,256s256-114.56,256-256S397.44,0,256,0z M256,460.8
				c-112.896,0-204.8-91.904-204.8-204.8S143.104,51.2,256,51.2S460.8,143.104,460.8,256S368.896,460.8,256,460.8z"/>
	</symbol>
</svg>
